<svg xmlns="http://www.w3.org/2000/svg" width="370.018" height="165.485" viewBox="0 0 370.018 165.485">
  <g id="Group_138" data-name="Group 138" transform="translate(-3581.234 -220.302)">
    <g id="Group_136" data-name="Group 136">
      <path id="Path_464" data-name="Path 464" d="M3672.9,298.028c0-26.2,18.054-44.653,42.98-44.653,25.4,0,42.819,16.279,42.819,41.242,0,26.2-18.215,44.653-43.14,44.653C3690.159,339.27,3672.9,322.99,3672.9,298.028Zm58.477,2.636c0-24.187-4.633-41.243-16.3-41.243-10.7,0-15.019,12.559-15.019,32.56,0,24.187,4.635,41.242,16.3,41.242C3727.065,333.223,3731.379,320.664,3731.379,300.664Z" fill="#f47e20"/>
      <path id="Path_465" data-name="Path 465" d="M3791.339,326.173c0,4.948,2.555,5.7,9.586,6.148v5.4h-44.737v-5.4c7.029-.45,9.586-1.2,9.586-6.148V235.6l-9.268-4.5V227.35l30.677-7.048h4.156Z" fill="#f47e20"/>
      <path id="Path_466" data-name="Path 466" d="M3797.719,298.028c0-26.2,18.055-44.653,42.978-44.653,25.4,0,42.819,16.279,42.819,41.242,0,26.2-18.212,44.653-43.138,44.653C3814.974,339.27,3797.719,322.99,3797.719,298.028Zm58.478,2.636c0-24.187-4.635-41.243-16.3-41.243-10.7,0-15.019,12.559-15.019,32.56,0,24.187,4.633,41.242,16.3,41.242C3851.882,333.223,3856.2,320.664,3856.2,300.664Z" fill="#f47e20"/>
      <path id="Path_467" data-name="Path 467" d="M3918.973,323.92c0,6.512,3.517,7.287,13.1,8.218v5.582h-48.251v-5.582c6.869-.465,9.426-1.241,9.426-6.357V271.05l-9.266-5.427v-3.566l30.835-8.682h4.793l-.64,23.412c7.032-17.52,12.144-23.412,21.89-23.412,3.515,0,8.95,2.154,10.389,3.7l-3.2,19.188-1.1-.44a11.582,11.582,0,0,0-4.414-.829c-9.014.091-16.492.912-23.566,7.06Z" fill="#f47e20"/>
      <g id="Group_135" data-name="Group 135">
        <path id="Path_468" data-name="Path 468" d="M3645.1,314.728c12.817,0,22.215-4.853,29.05-14.772l4.273,2.321c-6.836,24.266-23.283,35.87-46.139,35.87-29.263,0-51.051-21.1-51.051-54.859,0-35.447,22.215-62.033,56.819-62.033,21.145,0,37.167,8.23,37.167,25.531,0,7.385-4.059,12.659-8.759,14.771H3648.3a102.412,102.412,0,0,0,.854-11.183c0-11.607-3.631-20.466-14.738-20.466-14.738,0-23.5,17.513-23.5,40.088C3610.925,297.215,3623.528,314.728,3645.1,314.728Z" fill="#f47e20"/>
      </g>
    </g>
    <g id="Group_137" data-name="Group 137">
      <path id="Path_469" data-name="Path 469" d="M3744.021,380.239a7.567,7.567,0,0,0,6.741-3.5l.991.549c-1.586,5.749-5.4,8.5-10.706,8.5-6.791,0-11.846-5-11.846-13,0-8.4,5.155-14.7,13.184-14.7,4.907,0,8.624,1.95,8.624,6.049a3.738,3.738,0,0,1-2.032,3.5h-4.213a24.739,24.739,0,0,0,.2-2.649c0-2.749-.842-4.849-3.42-4.849-3.419,0-5.452,4.149-5.452,9.5C3736.09,376.089,3739.015,380.239,3744.021,380.239Z" fill="#f47e20"/>
      <path id="Path_470" data-name="Path 470" d="M3775.347,379.789c0,1.449.248,2.5,1.487,2.5a4.536,4.536,0,0,0,1.833-.4l.3,1.2a7.688,7.688,0,0,1-6.047,2.7,5.163,5.163,0,0,1-5.3-4.3,9.372,9.372,0,0,1-7.583,4.2c-4.114,0-6.89-2.449-6.89-6.6,0-4.349,3.024-6.1,6.642-7.449l7.683-2.749v-4.649c0-2.6-.793-4.4-3.073-4.4-2.131,0-3.024,1.7-3.024,4.1a12.827,12.827,0,0,0,.446,3.25l-4.758.649a3.275,3.275,0,0,1-2.329-3.3c0-4.349,4.461-6.449,10.21-6.449,6.592,0,10.409,2.25,10.409,8.448Zm-7.881.35v-9.3l-3.519,1.4c-1.933.8-3.172,1.8-3.172,4.649,0,2.6,1.09,4.45,3.667,4.45A5.061,5.061,0,0,0,3767.466,380.139Z" fill="#f47e20"/>
      <path id="Path_471" data-name="Path 471" d="M3798.792,366.841c0-2.6-.942-3.949-3.569-3.949a9.117,9.117,0,0,0-4.907,1.6v16.947c0,1.649.694,1.9,2.826,2.049v1.8h-13.73v-1.8c2.131-.15,2.924-.4,2.924-2.049V363.792l-2.875-1.75v-1.149l9.566-2.8h1.487l-.2,4.949c1.983-2.449,4.808-4.949,9.17-4.949,4.709,0,7.286,2.7,7.286,8.148v15.2c0,1.649.793,1.9,2.924,2.049v1.8h-13.729v-1.8c2.131-.15,2.825-.4,2.825-2.049Z" fill="#f47e20"/>
      <path id="Path_472" data-name="Path 472" d="M3830.167,366.841c0-2.6-.941-3.949-3.568-3.949a9.117,9.117,0,0,0-4.907,1.6v16.947c0,1.649.694,1.9,2.825,2.049v1.8h-13.73v-1.8c2.132-.15,2.925-.4,2.925-2.049V363.792l-2.875-1.75v-1.149l9.566-2.8h1.487l-.2,4.949c1.982-2.449,4.808-4.949,9.169-4.949,4.709,0,7.286,2.7,7.286,8.148v15.2c0,1.649.793,1.9,2.925,2.049v1.8h-13.73v-1.8c2.131-.15,2.825-.4,2.825-2.049Z" fill="#f47e20"/>
      <path id="Path_473" data-name="Path 473" d="M3864.269,379.789c0,1.449.248,2.5,1.487,2.5a4.542,4.542,0,0,0,1.834-.4l.3,1.2a7.688,7.688,0,0,1-6.048,2.7,5.161,5.161,0,0,1-5.3-4.3,9.373,9.373,0,0,1-7.583,4.2c-4.114,0-6.89-2.449-6.89-6.6,0-4.349,3.024-6.1,6.642-7.449l7.682-2.749v-4.649c0-2.6-.793-4.4-3.073-4.4-2.131,0-3.023,1.7-3.023,4.1a12.816,12.816,0,0,0,.446,3.25l-4.758.649a3.276,3.276,0,0,1-2.33-3.3c0-4.349,4.461-6.449,10.211-6.449,6.592,0,10.408,2.25,10.408,8.448Zm-7.881.35v-9.3l-3.519,1.4c-1.933.8-3.172,1.8-3.172,4.649,0,2.6,1.09,4.45,3.668,4.45A5.055,5.055,0,0,0,3856.388,380.139Z" fill="#f47e20"/>
      <path id="Path_474" data-name="Path 474" d="M3867.244,349.745v-1.25l9.516-2.349h1.289v16.7a9.865,9.865,0,0,1,8.327-4.749c5.948,0,9.963,4.3,9.963,12.2,0,10-6.246,15.5-14.176,15.5-4.461,0-9.071-1.049-12.044-3.5V351.245Zm21.016,23.145c0-6.349-2.281-10-6.494-10a6.218,6.218,0,0,0-3.717,1.3v14c0,3.549,1.189,5.5,4.064,5.5C3886.029,383.688,3888.26,378.939,3888.26,372.89Z" fill="#f47e20"/>
      <path id="Path_475" data-name="Path 475" d="M3908.929,381.439c0,1.649.793,1.9,2.925,2.049v1.8h-13.829v-1.8c2.131-.15,2.924-.4,2.924-2.049V363.792l-2.875-1.75v-1.149l9.517-2.8h1.338ZM3900.5,351.2a4.44,4.44,0,1,1,4.411,4.249A4.253,4.253,0,0,1,3900.5,351.2Z" fill="#f47e20"/>
      <path id="Path_476" data-name="Path 476" d="M3914.034,383.288l-.3-6.8h2.032c1.041,4.2,3.619,7.4,7.435,7.4,2.478,0,4.461-1.25,4.461-3.749,0-2.65-1.884-3.549-5.551-4.849-5.4-1.8-8.278-4.05-8.278-8.849,0-5.348,3.965-8.348,9.715-8.348a15.235,15.235,0,0,1,8.228,2.2v6.048H3929.9c-.693-3.449-2.825-6.348-6.294-6.348-2.33,0-3.817,1.35-3.817,3.349,0,2.25,1.537,3.249,5.1,4.5,5.6,1.95,8.773,4,8.773,9.2,0,5.549-4.114,8.748-10.458,8.748A15.57,15.57,0,0,1,3914.034,383.288Z" fill="#f47e20"/>
    </g>
  </g>
</svg>
