<svg xmlns="http://www.w3.org/2000/svg" width="378.809" height="169.417" viewBox="0 0 378.809 169.417">
  <g id="Group_105" data-name="Group 105" transform="translate(-7885.791 -8253.302)">
    <g id="Group_103" data-name="Group 103">
      <path id="Path_235" data-name="Path 235" d="M7979.637,8332.874c0-26.825,18.483-45.714,44-45.714,26.008,0,43.837,16.667,43.837,42.223,0,26.825-18.648,45.714-44.166,45.714C7997.3,8375.1,7979.637,8358.429,7979.637,8332.874Zm59.866,2.7c0-24.763-4.742-42.223-16.684-42.223-10.958,0-15.375,12.857-15.375,33.333,0,24.763,4.745,42.222,16.684,42.222C8035.087,8368.905,8039.5,8356.048,8039.5,8335.573Z" fill="#832558"/>
      <path id="Path_236" data-name="Path 236" d="M8100.888,8361.688c0,5.065,2.615,5.834,9.814,6.294v5.527h-45.8v-5.527c7.2-.46,9.814-1.229,9.814-6.294v-92.728l-9.488-4.605v-3.839l31.4-7.215h4.255Z" fill="#832558"/>
      <path id="Path_237" data-name="Path 237" d="M8107.42,8332.874c0-26.825,18.483-45.714,44-45.714,26.008,0,43.837,16.667,43.837,42.223,0,26.825-18.645,45.714-44.163,45.714C8125.084,8375.1,8107.42,8358.429,8107.42,8332.874Zm59.866,2.7c0-24.763-4.745-42.223-16.684-42.223-10.959,0-15.375,12.857-15.375,33.333,0,24.763,4.743,42.222,16.684,42.222C8162.87,8368.905,8167.286,8356.048,8167.286,8335.573Z" fill="#832558"/>
      <path id="Path_238" data-name="Path 238" d="M8231.555,8359.382c0,6.667,3.6,7.46,13.414,8.413v5.715h-49.4v-5.715c7.031-.476,9.649-1.271,9.649-6.508v-56.032l-9.485-5.555v-3.651l31.566-8.889h4.907l-.654,23.969c7.2-17.937,12.432-23.969,22.409-23.969,3.6,0,9.163,2.206,10.636,3.793l-3.273,19.645-1.127-.45a11.879,11.879,0,0,0-4.52-.85c-9.228.093-16.884.935-24.125,7.229Z" fill="#832558"/>
      <g id="Group_102" data-name="Group 102">
        <path id="Path_239" data-name="Path 239" d="M7951.175,8349.971c13.122,0,22.743-4.968,29.74-15.122l4.375,2.376c-7,24.843-23.836,36.723-47.235,36.723-29.958,0-52.264-21.6-52.264-56.163,0-36.288,22.743-63.507,58.169-63.507,21.648,0,38.05,8.426,38.05,26.138,0,7.561-4.155,12.96-8.967,15.122h-18.588a104.646,104.646,0,0,0,.875-11.449c0-11.882-3.717-20.952-15.088-20.952-15.088,0-24.055,17.93-24.055,41.04C7916.187,8332.042,7929.09,8349.971,7951.175,8349.971Z" fill="#832558"/>
      </g>
    </g>
    <g id="Group_104" data-name="Group 104">
      <path id="Path_240" data-name="Path 240" d="M8052.445,8417.038a7.748,7.748,0,0,0,6.9-3.582l1.014.563c-1.623,5.886-5.531,8.7-10.96,8.7-6.952,0-12.128-5.118-12.128-13.306,0-8.6,5.278-15.046,13.5-15.046,5.023,0,8.829,2,8.829,6.191a3.83,3.83,0,0,1-2.08,3.583h-4.313a25.438,25.438,0,0,0,.2-2.713c0-2.813-.862-4.964-3.5-4.964-3.5,0-5.581,4.248-5.581,9.725C8044.327,8412.79,8047.32,8417.038,8052.445,8417.038Z" fill="#832558"/>
      <path id="Path_241" data-name="Path 241" d="M8084.516,8416.578c0,1.483.253,2.558,1.522,2.558a4.642,4.642,0,0,0,1.877-.409l.305,1.229a7.87,7.87,0,0,1-6.191,2.763,5.284,5.284,0,0,1-5.429-4.4,9.6,9.6,0,0,1-7.764,4.3c-4.211,0-7.053-2.507-7.053-6.755,0-4.452,3.095-6.244,6.8-7.625l7.864-2.815v-4.759c0-2.662-.811-4.5-3.146-4.5-2.181,0-3.095,1.74-3.095,4.2a13.069,13.069,0,0,0,.457,3.325l-4.871.665a3.352,3.352,0,0,1-2.385-3.377c0-4.453,4.567-6.6,10.453-6.6,6.748,0,10.656,2.3,10.656,8.648Zm-8.069.357v-9.519l-3.6,1.433c-1.979.819-3.248,1.843-3.248,4.761,0,2.659,1.117,4.555,3.755,4.555A5.172,5.172,0,0,0,8076.447,8416.936Z" fill="#832558"/>
      <path id="Path_242" data-name="Path 242" d="M8108.518,8403.323c0-2.661-.964-4.043-3.654-4.043a9.329,9.329,0,0,0-5.023,1.638v17.349c0,1.689.71,1.944,2.892,2.1v1.842h-14.056v-1.842c2.182-.154,2.994-.409,2.994-2.1V8400.2l-2.943-1.791v-1.177l9.793-2.866h1.523l-.2,5.065c2.03-2.507,4.922-5.065,9.387-5.065,4.821,0,7.459,2.764,7.459,8.342v15.558c0,1.689.812,1.944,2.994,2.1v1.842h-14.056v-1.842c2.183-.154,2.893-.409,2.893-2.1Z" fill="#832558"/>
      <path id="Path_243" data-name="Path 243" d="M8140.639,8403.323c0-2.661-.964-4.043-3.654-4.043a9.328,9.328,0,0,0-5.023,1.638v17.349c0,1.689.71,1.944,2.892,2.1v1.842H8120.8v-1.842c2.182-.154,2.994-.409,2.994-2.1V8400.2l-2.943-1.791v-1.177l9.793-2.866h1.523l-.2,5.065c2.03-2.507,4.922-5.065,9.387-5.065,4.821,0,7.459,2.764,7.459,8.342v15.558c0,1.689.812,1.944,2.994,2.1v1.842h-14.056v-1.842c2.182-.154,2.893-.409,2.893-2.1Z" fill="#832558"/>
      <path id="Path_244" data-name="Path 244" d="M8175.551,8416.578c0,1.483.254,2.558,1.522,2.558a4.642,4.642,0,0,0,1.877-.409l.3,1.229a7.869,7.869,0,0,1-6.191,2.763,5.286,5.286,0,0,1-5.429-4.4,9.6,9.6,0,0,1-7.764,4.3c-4.211,0-7.053-2.507-7.053-6.755,0-4.452,3.1-6.244,6.8-7.625l7.865-2.815v-4.759c0-2.662-.812-4.5-3.146-4.5-2.182,0-3.095,1.74-3.095,4.2a13.11,13.11,0,0,0,.456,3.325l-4.871.665a3.352,3.352,0,0,1-2.385-3.377c0-4.453,4.567-6.6,10.453-6.6,6.749,0,10.656,2.3,10.656,8.648Zm-8.068.357v-9.519l-3.6,1.433c-1.979.819-3.247,1.843-3.247,4.761,0,2.659,1.116,4.555,3.755,4.555A5.174,5.174,0,0,0,8167.483,8416.936Z" fill="#832558"/>
      <path id="Path_245" data-name="Path 245" d="M8178.6,8385.82v-1.279l9.743-2.405h1.319v17.093a10.1,10.1,0,0,1,8.524-4.861c6.09,0,10.2,4.4,10.2,12.486,0,10.236-6.394,15.865-14.512,15.865-4.567,0-9.286-1.075-12.331-3.583v-31.779Zm21.515,23.694c0-6.5-2.334-10.234-6.647-10.234a6.358,6.358,0,0,0-3.806,1.331v14.329c0,3.634,1.218,5.63,4.161,5.63C8197.828,8420.57,8200.111,8415.708,8200.111,8409.515Z" fill="#832558"/>
      <path id="Path_246" data-name="Path 246" d="M8221.272,8418.267c0,1.689.812,1.944,2.993,2.1v1.842h-14.157v-1.842c2.182-.154,2.993-.409,2.993-2.1V8400.2l-2.942-1.791v-1.177l9.743-2.866h1.37Zm-8.628-30.962a4.546,4.546,0,1,1,4.518,4.35A4.356,4.356,0,0,1,8212.645,8387.3Z" fill="#832558"/>
      <path id="Path_247" data-name="Path 247" d="M8226.5,8420.16l-.3-6.96h2.081c1.064,4.3,3.7,7.574,7.61,7.574,2.537,0,4.567-1.279,4.567-3.839,0-2.713-1.929-3.633-5.684-4.964-5.53-1.842-8.474-4.146-8.474-9.059,0-5.475,4.06-8.546,9.945-8.546a15.606,15.606,0,0,1,8.423,2.251v6.192h-1.928c-.71-3.53-2.893-6.5-6.444-6.5-2.385,0-3.907,1.383-3.907,3.43,0,2.3,1.573,3.327,5.227,4.605,5.733,2,8.981,4.1,8.981,9.417,0,5.681-4.212,8.956-10.707,8.956C8231.827,8422.719,8228.579,8421.7,8226.5,8420.16Z" fill="#832558"/>
    </g>
  </g>
</svg>
